<?xml version="1.0" encoding="iso-8859-1"?>
<!-- Generator: Adobe Illustrator 25.0.0, SVG Export Plug-In . SVG Version: 6.00 Build 0)  -->
<svg version="1.1" xmlns="http://www.w3.org/2000/svg" xmlns:xlink="http://www.w3.org/1999/xlink" x="0px" y="0px"
	 viewBox="0 0 1000 607.958" style="enable-background:new 0 0 1000 607.958;" xml:space="preserve">
<g id="_x32_amb-A">
	<polygon style="fill:#FFFFFF;stroke:#000000;stroke-miterlimit:10;" points="225.211,394.547 225.211,432.442 110.768,432.442 
		110.768,502.168 0,502.168 0,599.937 219.147,599.937 219.147,461.242 261.589,461.242 261.589,394.547 	"/>
</g>
<g id="_x32_amb-B">
	<polygon style="fill:#FFFFFF;stroke:#000000;stroke-miterlimit:10;" points="225.211,150.884 368.453,150.884 368.453,189.916 
		376.411,189.916 376.411,366.505 225.211,366.505 	"/>
</g>
<g id="_x32_amb-C">
	<polygon style="fill:#FFFFFF;stroke:#000000;stroke-miterlimit:10;" points="524.958,8.021 475.695,8.021 475.695,56.147 
		368.453,56.147 368.453,189.916 376.411,189.916 376.411,213.411 524.958,213.411 	"/>
</g>
<g id="_x32_amb-D">
	
		<rect x="524.958" transform="matrix(-1 -1.224647e-16 1.224647e-16 -1 1200.3579 213.4105)" style="fill:#FFFFFF;stroke:#000000;stroke-miterlimit:10;" width="150.442" height="213.411"/>
</g>
<g id="_x31_amb-E">
	<rect x="675.4" y="8.021" style="fill:#FFFFFF;stroke:#000000;stroke-miterlimit:10;" width="80.337" height="205.389"/>
</g>
<g id="_x32_amb-F">
	<polygon style="fill:#FFFFFF;stroke:#000000;stroke-miterlimit:10;" points="755.737,8.021 904.284,8.021 904.284,186.884 
		872.453,186.884 872.453,220.989 813.337,220.989 813.337,316.484 698.895,316.484 698.895,213.411 755.737,213.411 	"/>
</g>
<g id="_x33_amb-G">
	<polygon style="fill:#FFFFFF;stroke:#000000;stroke-miterlimit:10;" points="698.895,316.484 893.926,316.484 893.926,343.263 
		939.905,343.263 1000,568.105 755.737,568.105 755.737,394.547 698.895,394.547 	"/>
</g>
<g id="_x32_amb-H">
	<polygon style="fill:#FFFFFF;stroke:#000000;stroke-miterlimit:10;" points="607.189,394.547 755.737,394.547 755.737,568.105 
		674.642,568.105 674.642,602 607.19,602 	"/>
</g>
<g id="_x32_amb-I">
	<rect x="456.747" y="394.547" style="fill:#FFFFFF;stroke:#000000;stroke-miterlimit:10;" width="150.442" height="213.41"/>
</g>
<g id="_x31_amb-J">
	
		<rect x="376.411" y="394.547" transform="matrix(-1 1.317674e-07 -1.317674e-07 -1 833.158 994.4842)" style="fill:#FFFFFF;stroke:#000000;stroke-miterlimit:10;" width="80.337" height="205.389"/>
</g>
<g id="_x32_amb-K">
	<polygon style="fill:#FFFFFF;stroke:#000000;stroke-miterlimit:10;" points="261.589,394.547 376.411,394.547 376.411,599.937 
		219.147,599.937 219.147,461.242 261.589,461.242 	"/>
</g>
<g id="hall">
	<polygon style="fill:#FFFFFF;stroke:#000000;stroke-miterlimit:10;" points="225.211,394.547 225.211,366.505 376.411,366.505 
		376.411,213.411 698.895,213.411 698.895,394.547 	"/>
</g>
</svg>
